<svg xmlns="http://www.w3.org/2000/svg" viewBox="0 0 1200 1200"><defs><style>.cls-1{isolation:isolate;}.cls-2{fill:#1d1d1b;}.cls-3{fill:#4d2a22;}.cls-4{fill:#b26634;}.cls-4,.cls-7,.cls-8{stroke:#000;stroke-miterlimit:10;}.cls-4,.cls-8{stroke-width:15px;}.cls-5{fill:#fff;opacity:0.46;}.cls-5,.cls-6{mix-blend-mode:soft-light;}.cls-6{opacity:0.34;}.cls-8{fill:none;}</style></defs><g class="cls-1"><g id="complexion"><ellipse class="cls-2" cx="441" cy="525.63" rx="45" ry="60.37"/><ellipse class="cls-2" cx="801" cy="525.63" rx="45" ry="60.37"/><path class="cls-2" d="M566.25,676c-2.83-5.81-2.53-13.28,0-19.78a41.66,41.66,0,0,1,12.34-16.68c.67-.57,1.35-1.09,2-1.61s1.39-1,2.1-1.52,1.45-.94,2.19-1.38,1.48-.87,2.24-1.27a57.35,57.35,0,0,1,9.39-4.08,63.91,63.91,0,0,1,39.91,0,56.5,56.5,0,0,1,9.39,4.08c.76.4,1.5.82,2.24,1.27s1.48.87,2.18,1.38,1.41,1,2.1,1.52,1.37,1,2,1.6a41.74,41.74,0,0,1,12.33,16.67c2.52,6.5,2.83,14,0,19.77h-1.5A27.45,27.45,0,0,0,660,660.77a39.64,39.64,0,0,0-12-11,57.16,57.16,0,0,0-15.16-6.31,68,68,0,0,0-32.7,0A56.8,56.8,0,0,0,585,649.8a39.76,39.76,0,0,0-12,11A27.45,27.45,0,0,0,567.75,676Z"/><path class="cls-2" d="M721.39,758.68c.29,1.55.63,3.14.79,4.74l.22,2.42.11,1.22,0,1.22a45,45,0,0,1-.17,4.92l-.2,2.48-.37,2.46a62.27,62.27,0,0,1-6.38,19.1c-6.27,12.1-15.89,22.31-26.84,30.27-1.36,1-2.77,2-4.18,2.89s-2.85,1.83-4.31,2.7-2.93,1.69-4.43,2.48l-2.24,1.19-2.28,1.1a126.94,126.94,0,0,1-18.87,7.27,138.61,138.61,0,0,1-19.7,4.27,162.41,162.41,0,0,1-20.06,1.41,160.22,160.22,0,0,1-20-1.43c-3.33-.47-6.63-1.11-9.92-1.78l-4.92-1.13c-1.63-.42-3.25-.91-4.86-1.36a127,127,0,0,1-18.87-7.28l-2.28-1.1-2.24-1.19c-1.5-.78-3-1.57-4.43-2.48s-2.89-1.75-4.3-2.71-2.82-1.86-4.19-2.88c-10.94-8-20.55-18.17-26.82-30.25a62.11,62.11,0,0,1-6.39-19.1l-.37-2.46-.21-2.47a47.68,47.68,0,0,1-.17-4.92l0-1.22.1-1.22.21-2.42c.16-1.6.5-3.19.79-4.74h1.5a61.06,61.06,0,0,0,11.22,34,87.9,87.9,0,0,0,26.46,24.62,122.08,122.08,0,0,0,33.54,14.08,149.55,149.55,0,0,0,72.34,0,122.08,122.08,0,0,0,33.54-14.08,87.9,87.9,0,0,0,26.46-24.62,61.06,61.06,0,0,0,11.22-34Z"/><path class="cls-2" d="M390.75,475.55c-2.83-5.82-2.53-13.28,0-19.79a41.8,41.8,0,0,1,12.34-16.68c.67-.56,1.35-1.08,2-1.6s1.39-1,2.1-1.52,1.45-.94,2.19-1.38,1.48-.88,2.24-1.28a57.3,57.3,0,0,1,9.39-4.07,63.91,63.91,0,0,1,39.91,0,57.3,57.3,0,0,1,9.39,4.07c.76.4,1.5.83,2.24,1.28s1.48.87,2.18,1.38,1.41,1,2.1,1.52,1.37,1,2,1.6a41.74,41.74,0,0,1,12.33,16.67c2.52,6.5,2.83,14,0,19.77h-1.5a27.42,27.42,0,0,0-5.23-15.23,39.51,39.51,0,0,0-12-11A57.16,57.16,0,0,0,457.35,443a68.16,68.16,0,0,0-32.7,0,57.16,57.16,0,0,0-15.16,6.31,39.76,39.76,0,0,0-12,11,27.42,27.42,0,0,0-5.23,15.23Z"/><path class="cls-2" d="M750.75,475.55c-2.83-5.82-2.53-13.28,0-19.79a41.8,41.8,0,0,1,12.34-16.68c.67-.56,1.35-1.08,2-1.6s1.39-1,2.1-1.52,1.45-.94,2.19-1.38,1.48-.88,2.24-1.28a57.3,57.3,0,0,1,9.39-4.07,63.91,63.91,0,0,1,39.91,0,57.3,57.3,0,0,1,9.39,4.07c.76.4,1.5.83,2.24,1.28s1.48.87,2.18,1.38,1.41,1,2.1,1.52,1.37,1,2,1.6a41.74,41.74,0,0,1,12.33,16.67c2.52,6.5,2.83,14,0,19.77h-1.5a27.42,27.42,0,0,0-5.23-15.23,39.51,39.51,0,0,0-12-11A57.16,57.16,0,0,0,817.35,443a68.16,68.16,0,0,0-32.7,0,57.16,57.16,0,0,0-15.16,6.31,39.76,39.76,0,0,0-12,11,27.42,27.42,0,0,0-5.23,15.23Z"/><path class="cls-3" d="M285,514.85c-6.54-8-14.46-12.67-23-12.67-22.42,0-40.59,32.2-40.59,71.91S239.58,646,262,646c8.54,0,16.46-4.69,23-12.67V514.85Z"/><path class="cls-3" d="M285,514.73V303H933V711c0,172.2-140.73,319.84-312.83,325.62C436.14,1042.75,285,895.51,285,713V514.73Z"/><path class="cls-3" d="M996.05,574.09c0,39.72-18.18,71.91-40.59,71.91-8.31,0-16-4.42-22.46-12V514.19c6.43-7.59,14.15-12,22.46-12C977.87,502.18,996.05,534.38,996.05,574.09Z"/><path class="cls-4" d="M285.23,502.06s-1.3-1.9-3.53-5.57c-75.78-124.52-10-286.65,130.81-324.34C521.8,142.89,667,125.24,818,167.36c143.28,40,204.32,210.85,117.18,331.41-.79,1.09-1.59,2.18-2.4,3.26,0,0-57.83-91.87-70-148.46a23.17,23.17,0,0,0-21.29-18.35c-77.75-4.35-371.16-19-462.7,2.78a25.73,25.73,0,0,0-19.54,21.11C354.59,389.5,338.54,458.51,285.23,502.06Z"/><path class="cls-2" d="M971,551.88c-.34,0-.76-.84-1.25-2.14s-1.12-3-1.91-4.75a156.16,156.16,0,0,0-8.46-14.82c-1-1.46-2.08-2.78-2.85-3.84s-1.25-1.8-1.05-2.07,1.07,0,2.29.61a23.5,23.5,0,0,1,4.18,2.94,33.2,33.2,0,0,1,3.9,4c.51.66,1,1.26,1.34,1.77s.61.92.76,1.18a32.82,32.82,0,0,1,3.23,9.21,24.87,24.87,0,0,1,.47,5.46C971.61,550.9,971.38,551.85,971,551.88Z"/><path class="cls-2" d="M244.56,550.05c-.33,0-.68-.86-.91-2.27a16.71,16.71,0,0,1,.24-5.36,21.73,21.73,0,0,1,1.9-5.57,16.93,16.93,0,0,1,1.14-2,9.07,9.07,0,0,1,.82-1.19c.19-.23.52-.59.93-1s1-.93,1.62-1.48a21.8,21.8,0,0,1,4.68-2.93,19.49,19.49,0,0,1,2.54-1,18.78,18.78,0,0,1,2.25-.46c1.34-.1,2.2,0,2.27.33s-.61.86-1.65,1.48a41.36,41.36,0,0,0-3.6,2.59,27.2,27.2,0,0,0-3.34,3.23l-1.15,1.4c-.29.41-.53.73-.69.91a29.65,29.65,0,0,0-4.39,6.75,33.58,33.58,0,0,0-1.65,4.45C245.21,549.16,244.91,550,244.56,550.05Z"/><path class="cls-2" d="M904.28,339.24c-.51.05-1.12-.78-1.8-2.25-.33-.73-.69-1.63-1.06-2.66s-.68-2.21-1.2-3.47-1-2.62-1.48-4.07l-.76-2.23-.94-2.3c-.62-1.56-1.25-3.18-1.91-4.84s-1.49-3.27-2.26-4.94c-.39-.83-.71-1.68-1.15-2.49l-1.28-2.44-1.26-2.42c-.4-.81-.82-1.61-1.29-2.37-.91-1.53-1.79-3-2.65-4.49-.41-.74-.87-1.44-1.33-2.11l-1.32-2c-.87-1.28-1.62-2.54-2.43-3.64l-2.23-3-1.74-2.42c-.53-.66-1-1.21-1.28-1.62-.63-.83-1.61-2.2-2.83-4s-2.91-3.77-4.66-6.11c-.91-1.14-1.93-2.27-2.95-3.48s-2-2.51-3.22-3.68l-3.49-3.69c-.57-.64-1.2-1.21-1.82-1.8L854.08,259c-2.4-2.44-5-4.52-7.36-6.62l-.87-.78-.89-.7c-.59-.47-1.17-.92-1.72-1.37-1.12-.89-2.16-1.76-3.11-2.58-4-3-6.48-5.31-6-6.25s3.78-.38,8.81,1.2c1.22.46,2.54,1,4,1.57l2.16.91,1.12.49,1.1.57a93,93,0,0,1,9.29,5.31l2.35,1.53c.78.52,1.58,1,2.31,1.61l4.43,3.4c1.49,1.09,2.79,2.35,4.12,3.5s2.59,2.3,3.76,3.43c2.24,2.34,4.32,4.42,5.9,6.24s2.73,3.33,3.44,4.26c.35.47.82,1.1,1.36,1.88l1.76,2.84c.66,1.08,1.39,2.29,2.17,3.59s1.48,2.8,2.28,4.33l1.19,2.37a26.11,26.11,0,0,1,1.17,2.5q1.08,2.59,2.24,5.33c.39.89.72,1.83,1,2.78l1,2.85.94,2.85c.33,1,.53,1.94.79,2.9.48,1.93.95,3.85,1.41,5.71s.63,3.76.92,5.54c.14.89.27,1.76.4,2.61s.13,1.7.19,2.52c.12,1.63.2,3.16.26,4.56a29.35,29.35,0,0,1-.11,3.84c-.09,1.14-.2,2.13-.34,2.94C905.17,338.27,904.79,339.2,904.28,339.24Z"/><path class="cls-2" d="M656.06,271.17c.1.5-1.7,1.36-5,2.5-1.65.57-3.66,1.2-6,1.9s-5,1.49-7.91,2.17-6.11,1.48-9.51,2.26l-5.25,1.2-5.54,1.08c-3.77.73-7.7,1.5-11.73,2.23l-12.35,2c-16.73,2.48-34.21,4.35-48.74,5.19-3.63.22-7.07.5-10.28.61l-8.83.31-7,.22H513c-2.47,0-6.44-.12-11.52-.27s-11.23-.62-18.06-1c-3.41-.24-7-.61-10.68-.93s-7.51-.63-11.37-1.14L449.67,288c-2-.23-3.94-.52-5.9-.83l-5.87-.9c-7.8-1.12-15.39-2.62-22.41-4-3.52-.64-6.86-1.47-10-2.18s-6.12-1.44-8.83-2.11c-10.83-2.92-17.71-5.28-17.5-6.27s7.47-.56,18.5.6c2.76.23,5.77.51,9,.82s6.56.72,10.09,1c7,.56,14.62,1.32,22.38,1.77l5.83.4c1.94.15,3.89.28,5.85.35l11.6.57c3.81.24,7.58.26,11.21.39s7.16.25,10.52.29l17.73.16c5,0,8.87-.06,11.29,0l4.78.08h6.89l8.65.06c3.15,0,6.53-.08,10.1-.11,14.28-.08,31.5-.85,48.13-2l12.3-.9,11.73-1.08,5.56-.48,5.29-.57c3.42-.37,6.65-.7,9.63-1s5.68-.6,8.09-.82,4.5-.41,6.23-.51C653.94,270.55,656,270.67,656.06,271.17Z"/><path class="cls-2" d="M914.51,873.38c-1.85,2-19.52-11.35-22-13.69s-16-17.83-14.18-19.83,18.34,10.24,20.87,12.59S916.36,871.38,914.51,873.38Z"/><path class="cls-2" d="M847.22,962.78c-2.44,1.22-12.6-14.17-13.89-16.74s-6.89-18.73-4.46-19.94,12,13,13.28,15.53S849.65,961.57,847.22,962.78Z"/><path class="cls-2" d="M747.65,1019.79c-2.63.7-8.71-13.51-9.33-15.82s-2.15-16.58.48-17.29,8.42,12.42,9,14.74S750.28,1019.08,747.65,1019.79Z"/><path class="cls-2" d="M683.06,933.83c-2.69.46-7.38-13.89-7.78-16.2s-.55-16.33,2.13-16.79,7.2,12.81,7.59,15.13S685.74,933.38,683.06,933.83Z"/><path class="cls-2" d="M493.47,919.85c-2.32-1.43,3.29-14.79,4.47-16.7s10-12.07,12.32-10.65-2.75,13.89-3.92,15.81S495.79,921.27,493.47,919.85Z"/><path class="cls-2" d="M353.8,880.29c1.64,2.18-13.42,16.22-16,18.14s-19.07,11.54-20.7,9.36,12.22-15.32,14.79-17.25S352.17,878.11,353.8,880.29Z"/><path class="cls-2" d="M414.15,946.13c2,1.86-8.69,16.47-10.62,18.53s-14.92,12.68-16.91,10.81,7.79-15.5,9.72-17.56S412.16,944.27,414.15,946.13Z"/><path class="cls-2" d="M480.84,996c2.57.89-1,18-1.92,20.58s-8.25,17-10.82,16.14.61-16.81,1.5-19.38S478.27,995.08,480.84,996Z"/><path class="cls-2" d="M581.93,1014.26c2.69.44,2.06,18.06,1.62,20.77s-5.22,18.36-7.91,17.92-2.26-16.79-1.82-19.5S579.25,1013.82,581.93,1014.26Z"/><path class="cls-2" d="M676.54,1012.32c2.69-.42,7.32,14.79,7.71,17.23s.48,17.2-2.21,17.63-7.14-13.65-7.53-16.09S673.85,1012.75,676.54,1012.32Z"/></g><g id="shadows"><path class="cls-5" d="M303.61,322.82c14.22-18.44,31.32-34.48,46-52.58,7-8.59,13.55-18.12,15.09-29.07s-3.51-23.54-13.91-27.31c-7.62-2.77-16.36-.24-22.92,4.52s-11.39,11.48-16.09,18.09c-27.08,38-73.38,94.8-66.95,145,1.88,14.7,18.26,39.92,30.8,16.72,5.23-9.68,2.65-26.4,6.47-37.37C286.87,347,294.74,334.33,303.61,322.82Z"/><path class="cls-6" d="M947.1,284c-6-9.05-14.67-16.84-24.69-20.65a5.88,5.88,0,0,0-7.52,7.69,193.07,193.07,0,0,1,13.47,83.12c-.92,15.27-3.65,30.79-.25,45.71s15.21,29.43,30.51,29.68c12.1.2,12.83-74.63,11.81-83C967.92,326.06,958.42,301,947.1,284Z"/><path class="cls-6" d="M935.4,526.05c.92-7.48,4.71-15,11.36-18.53,7.57-4,17.37-2,24.11,3.34s10.81,13.37,13.4,21.56,3.88,16.73,6.21,25c2.69,9.51,6.78,18.84,6.9,28.73.18,15.43-9.24,29.12-18.28,41.63-3.66,5.08-7.44,10.27-12.62,13.78s-12.17,5.06-17.79,2.3c-4.45-2.19-7.38-6.73-8.76-11.5s-1.4-9.81-1.41-14.77l-.16-48.34c0-7.15.63-14.71-.69-21.67A110.37,110.37,0,0,1,935.4,526.05Z"/><path class="cls-6" d="M880.85,765.13a12.87,12.87,0,0,1,20.29,2.13c11.59,19.11,13.87,43.86,8.6,65.94-6.55,27.43-23.11,51.4-41.43,72.83a434.62,434.62,0,0,1-91.24,80.47c-13.57,9-26.12,20.33-42.32,23.8l-.57.12c-24,5-19.71-2.73-18.59-22.76a59.58,59.58,0,0,1,7.14-25l.62-1.15a55.84,55.84,0,0,1,13.9-16.61c7.27-5.93,19-11.77,25.49-19.17,2.51-2.88,5.23-5.56,8-8.21l16.11-14a229.5,229.5,0,0,0,59.12-80.24c9.17-20.73,18.61-41.05,34.91-58.09Z"/></g><g id="outline_copy_2" data-name="outline copy 2"><ellipse class="cls-7" cx="471" cy="525.63" rx="45" ry="60.37"/><ellipse class="cls-7" cx="751" cy="525.63" rx="45" ry="60.37"/><path d="M566.25,676c-2.83-5.81-2.53-13.28,0-19.78a41.66,41.66,0,0,1,12.34-16.68c.67-.57,1.35-1.09,2-1.61s1.39-1,2.1-1.52,1.45-.94,2.19-1.38,1.48-.87,2.24-1.27a57.35,57.35,0,0,1,9.39-4.08,63.91,63.91,0,0,1,39.91,0,56.5,56.5,0,0,1,9.39,4.08c.76.4,1.5.82,2.24,1.27s1.48.87,2.18,1.38,1.41,1,2.1,1.52,1.37,1,2,1.6a41.74,41.74,0,0,1,12.33,16.67c2.52,6.5,2.83,14,0,19.77h-1.5A27.45,27.45,0,0,0,660,660.77a39.64,39.64,0,0,0-12-11,57.16,57.16,0,0,0-15.16-6.31,68,68,0,0,0-32.7,0A56.8,56.8,0,0,0,585,649.8a39.76,39.76,0,0,0-12,11A27.45,27.45,0,0,0,567.75,676Z"/><path d="M721.39,758.68c.29,1.55.63,3.14.79,4.74l.22,2.42.11,1.22,0,1.22a45,45,0,0,1-.17,4.92l-.2,2.48-.37,2.46a62.27,62.27,0,0,1-6.38,19.1c-6.27,12.1-15.89,22.31-26.84,30.27-1.36,1-2.77,2-4.18,2.89s-2.85,1.83-4.31,2.7-2.93,1.69-4.43,2.48l-2.24,1.19-2.28,1.1a126.94,126.94,0,0,1-18.87,7.27,138.61,138.61,0,0,1-19.7,4.27,162.41,162.41,0,0,1-20.06,1.41,160.22,160.22,0,0,1-20-1.43c-3.33-.47-6.63-1.11-9.92-1.78l-4.92-1.13c-1.63-.42-3.25-.91-4.86-1.36a127,127,0,0,1-18.87-7.28l-2.28-1.1-2.24-1.19c-1.5-.78-3-1.57-4.43-2.48s-2.89-1.75-4.3-2.71-2.82-1.86-4.19-2.88c-10.94-8-20.55-18.17-26.82-30.25a62.11,62.11,0,0,1-6.39-19.1l-.37-2.46-.21-2.47a47.68,47.68,0,0,1-.17-4.92l0-1.22.1-1.22.21-2.42c.16-1.6.5-3.19.79-4.74h1.5a61.06,61.06,0,0,0,11.22,34,87.9,87.9,0,0,0,26.46,24.62,122.08,122.08,0,0,0,33.54,14.08,149.55,149.55,0,0,0,72.34,0,122.08,122.08,0,0,0,33.54-14.08,87.9,87.9,0,0,0,26.46-24.62,61.06,61.06,0,0,0,11.22-34Z"/><path d="M420.75,475.55c-2.83-5.82-2.53-13.28,0-19.79a41.8,41.8,0,0,1,12.34-16.68c.67-.56,1.35-1.08,2-1.6s1.39-1,2.1-1.52,1.45-.94,2.19-1.38,1.48-.88,2.24-1.28a57.3,57.3,0,0,1,9.39-4.07,63.91,63.91,0,0,1,39.91,0,57.3,57.3,0,0,1,9.39,4.07c.76.4,1.5.83,2.24,1.28s1.48.87,2.18,1.38,1.41,1,2.1,1.52,1.37,1,2,1.6a41.74,41.74,0,0,1,12.33,16.67c2.52,6.5,2.83,14,0,19.77h-1.5a27.42,27.42,0,0,0-5.23-15.23,39.51,39.51,0,0,0-12-11A57.16,57.16,0,0,0,487.35,443a68.16,68.16,0,0,0-32.7,0,57.16,57.16,0,0,0-15.16,6.31,39.76,39.76,0,0,0-12,11,27.42,27.42,0,0,0-5.23,15.23Z"/><path d="M700.75,475.55a22.19,22.19,0,0,1-1.83-10.17,30.57,30.57,0,0,1,2.5-10.58,43,43,0,0,1,13.69-16.93c11.66-8.77,26.42-12.52,40.5-11.68a73.54,73.54,0,0,1,20.25,4,69.88,69.88,0,0,1,9.43,4c.77.38,1.52.79,2.27,1.2s1.51.81,2.23,1.29c1.46.9,2.9,1.86,4.31,2.85a51.21,51.21,0,0,1,14.41,15.33,30,30,0,0,1,3.81,10.21,18.27,18.27,0,0,1-1.07,10.46h-1.5a19.64,19.64,0,0,0-2.14-8.22,27.73,27.73,0,0,0-5.05-6.95,52.51,52.51,0,0,0-14.09-10.16,84.61,84.61,0,0,0-33.67-9.06,62,62,0,0,0-33.68,7.22A40.66,40.66,0,0,0,708,459.55a29.45,29.45,0,0,0-4.15,7.53,26.84,26.84,0,0,0-1.62,8.47Z"/><path class="cls-8" d="M285.5,514.85c-6.54-8-14.46-12.67-23-12.67-22.42,0-40.59,32.2-40.59,71.91S240.08,646,262.5,646c8.54,0,16.46-4.69,23-12.67V514.85Z"/><path class="cls-8" d="M995.55,574.09c0,39.72-18.18,71.91-40.59,71.91-8.31,0-16-4.42-22.46-12V514.19c6.43-7.59,14.15-12,22.46-12C977.37,502.18,995.55,534.38,995.55,574.09Z"/><path class="cls-8" d="M842.14,335c-77.77-4.36-371.45-19-463,2.78a25.73,25.73,0,0,0-19.55,21.11c-4.62,30.41-20.69,99.48-74,143.07V711.33c0,172.19,140.73,319.83,312.82,325.62,184,6.19,335.18-141.17,335.18-323.81V501.91s-57.89-92-70.08-148.59A23.15,23.15,0,0,0,842.14,335Z"/><path class="cls-8" d="M932.77,502c.81-1.08,1.61-2.17,2.4-3.26,87.14-120.56,26.1-291.45-117.18-331.41-151-42.12-296.19-24.47-405.48,4.79C271.71,209.84,205.92,372,281.7,496.49c2.23,3.67,3.53,5.57,3.53,5.57"/><path class="cls-8" d="M285.23,502.06c53.31-43.55,69.36-112.56,74-142.95A25.73,25.73,0,0,1,378.76,338c91.54-21.76,385-7.13,462.7-2.78a23.17,23.17,0,0,1,21.29,18.35c12.19,56.59,70,148.46,70,148.46"/><path class="cls-2" d="M971,551.88c-.34,0-.76-.84-1.25-2.14s-1.12-3-1.91-4.75a156.16,156.16,0,0,0-8.46-14.82c-1-1.46-2.08-2.78-2.85-3.84s-1.25-1.8-1.05-2.07,1.07,0,2.29.61a23.5,23.5,0,0,1,4.18,2.94,33.2,33.2,0,0,1,3.9,4c.51.66,1,1.26,1.34,1.77s.61.92.76,1.18a32.82,32.82,0,0,1,3.23,9.21,24.87,24.87,0,0,1,.47,5.46C971.61,550.9,971.38,551.85,971,551.88Z"/><path class="cls-2" d="M244.56,550.05c-.33,0-.68-.86-.91-2.27a16.71,16.71,0,0,1,.24-5.36,21.73,21.73,0,0,1,1.9-5.57,16.93,16.93,0,0,1,1.14-2,9.07,9.07,0,0,1,.82-1.19c.19-.23.52-.59.93-1s1-.93,1.62-1.48a21.8,21.8,0,0,1,4.68-2.93,19.49,19.49,0,0,1,2.54-1,18.78,18.78,0,0,1,2.25-.46c1.34-.1,2.2,0,2.27.33s-.61.86-1.65,1.48a41.36,41.36,0,0,0-3.6,2.59,27.2,27.2,0,0,0-3.34,3.23l-1.15,1.4c-.29.41-.53.73-.69.91a29.65,29.65,0,0,0-4.39,6.75,33.58,33.58,0,0,0-1.65,4.45C245.21,549.16,244.91,550,244.56,550.05Z"/><path class="cls-2" d="M904.28,339.24c-.51.05-1.12-.78-1.8-2.25-.33-.73-.69-1.63-1.06-2.66s-.68-2.21-1.2-3.47-1-2.62-1.48-4.07l-.76-2.23-.94-2.3c-.62-1.56-1.25-3.18-1.91-4.84s-1.49-3.27-2.26-4.94c-.39-.83-.71-1.68-1.15-2.49l-1.28-2.44-1.26-2.42c-.4-.81-.82-1.61-1.29-2.37-.91-1.53-1.79-3-2.65-4.49-.41-.74-.87-1.44-1.33-2.11l-1.32-2c-.87-1.28-1.62-2.54-2.43-3.64l-2.23-3-1.74-2.42c-.53-.66-1-1.21-1.28-1.62-.63-.83-1.61-2.2-2.83-4s-2.91-3.77-4.66-6.11c-.91-1.14-1.93-2.27-2.95-3.48s-2-2.51-3.22-3.68l-3.49-3.69c-.57-.64-1.2-1.21-1.82-1.8L854.08,259c-2.4-2.44-5-4.52-7.36-6.62l-.87-.78-.89-.7c-.59-.47-1.17-.92-1.72-1.37-1.12-.89-2.16-1.76-3.11-2.58-4-3-6.48-5.31-6-6.25s3.78-.38,8.81,1.2c1.22.46,2.54,1,4,1.57l2.16.91,1.12.49,1.1.57a93,93,0,0,1,9.29,5.31l2.35,1.53c.78.52,1.58,1,2.31,1.61l4.43,3.4c1.49,1.09,2.79,2.35,4.12,3.5s2.59,2.3,3.76,3.43c2.24,2.34,4.32,4.42,5.9,6.24s2.73,3.33,3.44,4.26c.35.47.82,1.1,1.36,1.88l1.76,2.84c.66,1.08,1.39,2.29,2.17,3.59s1.48,2.8,2.28,4.33l1.19,2.37a26.11,26.11,0,0,1,1.17,2.5q1.08,2.59,2.24,5.33c.39.89.72,1.83,1,2.78l1,2.85.94,2.85c.33,1,.53,1.94.79,2.9.48,1.93.95,3.85,1.41,5.71s.63,3.76.92,5.54c.14.89.27,1.76.4,2.61s.13,1.7.19,2.52c.12,1.63.2,3.16.26,4.56a29.35,29.35,0,0,1-.11,3.84c-.09,1.14-.2,2.13-.34,2.94C905.17,338.27,904.79,339.2,904.28,339.24Z"/><path class="cls-2" d="M656.06,271.17c.1.5-1.7,1.36-5,2.5-1.65.57-3.66,1.2-6,1.9s-5,1.49-7.91,2.17-6.11,1.48-9.51,2.26l-5.25,1.2-5.54,1.08c-3.77.73-7.7,1.5-11.73,2.23l-12.35,2c-16.73,2.48-34.21,4.35-48.74,5.19-3.63.22-7.07.5-10.28.61l-8.83.31-7,.22H513c-2.47,0-6.44-.12-11.52-.27s-11.22-.62-18.06-1c-3.41-.24-7-.61-10.68-.93s-7.51-.63-11.37-1.14L449.67,288c-2-.23-3.94-.52-5.9-.83l-5.87-.9c-7.8-1.12-15.39-2.62-22.41-4-3.52-.64-6.86-1.47-10-2.18s-6.12-1.44-8.83-2.11c-10.83-2.92-17.71-5.28-17.5-6.27s7.47-.56,18.5.6c2.76.23,5.77.51,9,.82s6.56.72,10.09,1c7,.56,14.62,1.32,22.38,1.77l5.83.4c1.94.15,3.89.28,5.85.35l11.6.57c3.81.24,7.58.26,11.21.39s7.16.25,10.52.29l17.73.16c5,0,8.87-.06,11.29,0l4.78.08h6.89l8.65.06c3.15,0,6.53-.08,10.1-.11,14.28-.08,31.5-.85,48.13-2l12.3-.9,11.73-1.08,5.56-.48,5.29-.57c3.42-.37,6.65-.7,9.63-1s5.68-.6,8.09-.82,4.5-.41,6.23-.51C653.94,270.55,656,270.67,656.06,271.17Z"/><path class="cls-2" d="M914.51,873.38c-1.85,2-19.52-11.35-22-13.69s-16-17.83-14.18-19.83,18.34,10.24,20.87,12.59S916.36,871.38,914.51,873.38Z"/><path class="cls-2" d="M847.22,962.78c-2.44,1.22-12.6-14.17-13.89-16.74s-6.89-18.73-4.46-19.94,12,13,13.28,15.53S849.65,961.57,847.22,962.78Z"/><path class="cls-2" d="M747.65,1019.79c-2.63.7-8.71-13.51-9.33-15.82s-2.15-16.58.48-17.29,8.42,12.42,9,14.74S750.28,1019.08,747.65,1019.79Z"/><path class="cls-2" d="M683.06,933.83c-2.69.46-7.38-13.89-7.78-16.2s-.55-16.33,2.13-16.79,7.2,12.81,7.59,15.13S685.74,933.38,683.06,933.83Z"/><path class="cls-2" d="M493.47,919.85c-2.32-1.43,3.29-14.79,4.47-16.7s10-12.07,12.32-10.65-2.75,13.89-3.92,15.81S495.79,921.27,493.47,919.85Z"/><path class="cls-2" d="M353.8,880.29c1.64,2.18-13.42,16.22-16,18.14s-19.07,11.54-20.7,9.36,12.22-15.32,14.79-17.25S352.17,878.11,353.8,880.29Z"/><path class="cls-2" d="M414.15,946.13c2,1.86-8.69,16.47-10.62,18.53s-14.92,12.68-16.91,10.81,7.79-15.5,9.72-17.56S412.16,944.27,414.15,946.13Z"/><path class="cls-2" d="M480.84,996c2.57.89-1,18-1.92,20.58s-8.25,17-10.82,16.14.61-16.81,1.5-19.38S478.27,995.08,480.84,996Z"/><path class="cls-2" d="M581.93,1014.26c2.69.44,2.06,18.06,1.62,20.77s-5.22,18.36-7.91,17.92-2.26-16.79-1.82-19.5S579.25,1013.82,581.93,1014.26Z"/><path class="cls-2" d="M676.54,1012.32c2.69-.42,7.32,14.79,7.71,17.23s.48,17.2-2.21,17.63-7.14-13.65-7.53-16.09S673.85,1012.75,676.54,1012.32Z"/></g></g></svg>